<svg width="23" height="23" viewBox="0 0 23 23" fill="none" xmlns="http://www.w3.org/2000/svg">
<path fill-rule="evenodd" clip-rule="evenodd" d="M12.1145 1.86617C11.7793 1.51642 11.2207 1.51641 10.8855 1.86616C10.8855 1.86616 10.8855 1.86616 10.8855 1.86616L9.328 3.49142C9.1026 3.72662 8.80975 3.90327 8.53838 4.02067C8.26742 4.13789 7.94212 4.22881 7.62667 4.22881H5.42361C4.9463 4.22881 4.55262 4.63962 4.55262 5.13764V7.43652C4.55262 7.7657 4.46546 8.10515 4.35312 8.38789C4.2406 8.67105 4.07131 8.97662 3.84593 9.2118C3.84593 9.21181 3.84593 9.2118 3.84593 9.2118L2.28842 10.8371C1.95324 11.1868 1.95323 11.7697 2.28841 12.1195L3.84142 13.74C4.07143 13.9732 4.24127 14.2791 4.35312 14.5606C4.46668 14.8464 4.55262 15.1879 4.55262 15.52V17.8188C4.55262 18.3168 4.94638 18.7277 5.42361 18.7277H7.62667C7.94212 18.7277 8.26742 18.8186 8.53838 18.9359C8.80975 19.0533 9.1026 19.2299 9.32799 19.4651L10.8855 21.0904C11.2207 21.4401 11.7793 21.4401 12.1145 21.0904L13.672 19.4651C13.8974 19.2299 14.1902 19.0533 14.4616 18.9359C14.7325 18.8186 15.0578 18.7277 15.3733 18.7277H17.5764C18.0536 18.7277 18.4473 18.3169 18.4473 17.8188V15.52C18.4473 15.1908 18.5345 14.8514 18.6468 14.5686C18.7594 14.2855 18.9287 13.9799 19.154 13.7447L20.7116 12.1195C21.0468 11.7697 21.0468 11.1868 20.7116 10.8371L19.154 9.21181C18.9287 8.97662 18.7594 8.67105 18.6468 8.38789C18.5345 8.10515 18.4473 7.7657 18.4473 7.43652V5.13764C18.4473 4.6396 18.0537 4.22881 17.5764 4.22881H15.3733C15.0578 4.22881 14.7325 4.13789 14.4616 4.02066C14.1902 3.90326 13.8974 3.72662 13.672 3.49143L12.1145 1.86617ZM9.79866 0.732073C10.7341 -0.244024 12.2659 -0.244024 13.2013 0.732073L14.7588 2.35733C14.7999 2.40014 14.9015 2.47475 15.0503 2.5391C15.1994 2.60364 15.3199 2.62496 15.3733 2.62496H17.5764C18.9026 2.62496 19.9844 3.75382 19.9844 5.13764V7.43652C19.9844 7.49227 20.0048 7.61793 20.0667 7.77359C20.1283 7.92881 20.1999 8.0349 20.2409 8.07771L21.7984 9.70297C22.7339 10.6791 22.7339 12.2775 21.7984 13.2535L20.2409 14.8788C20.1999 14.9216 20.1283 15.0277 20.0667 15.1829C20.0048 15.3386 19.9844 15.4643 19.9844 15.52V17.8188C19.9844 19.2025 18.9026 20.3316 17.5764 20.3316H15.3733C15.3199 20.3316 15.1994 20.3529 15.0503 20.4174C14.9015 20.4818 14.7999 20.5564 14.7588 20.5992L13.2013 22.2244C12.2659 23.2005 10.7341 23.2005 9.79866 22.2244L8.24115 20.5992C8.20013 20.5564 8.09847 20.4818 7.94972 20.4174C7.80055 20.3529 7.68012 20.3316 7.62667 20.3316H5.42361C4.09739 20.3316 3.01559 19.2025 3.01559 17.8188V15.52C3.01559 15.4565 2.99393 15.3275 2.9333 15.1749C2.87197 15.0206 2.80306 14.9232 2.76984 14.8898L2.75907 14.8788L1.20157 13.2535C1.20157 13.2535 1.20157 13.2536 1.20157 13.2535C0.266147 12.2775 0.266142 10.6791 1.20156 9.70298C1.20156 9.70298 1.20157 9.70298 1.20156 9.70298L2.75907 8.07772C2.80011 8.0349 2.87162 7.92881 2.9333 7.77359C2.99515 7.61793 3.01559 7.49227 3.01559 7.43652V5.13764C3.01559 3.7538 4.09746 2.62496 5.42361 2.62496H7.62667C7.68012 2.62496 7.80055 2.60363 7.94972 2.5391C8.09847 2.47475 8.20012 2.40014 8.24115 2.35734C8.24114 2.35734 8.24115 2.35734 8.24115 2.35734L9.79866 0.732073Z" fill="black"/>
<path fill-rule="evenodd" clip-rule="evenodd" d="M15.1287 7.69228C15.4289 8.00545 15.4289 8.5132 15.1287 8.82637L8.98064 15.2418C8.68051 15.555 8.19392 15.555 7.89379 15.2418C7.59367 14.9286 7.59367 14.4209 7.89379 14.1077L14.0419 7.69228C14.342 7.3791 14.8286 7.3791 15.1287 7.69228Z" fill="black"/>
<path fill-rule="evenodd" clip-rule="evenodd" d="M13.0427 14.1403C13.0427 13.5498 13.5015 13.071 14.0674 13.071H14.0766C14.6425 13.071 15.1013 13.5498 15.1013 14.1403C15.1013 14.7308 14.6425 15.2095 14.0766 15.2095H14.0674C13.5015 15.2095 13.0427 14.7308 13.0427 14.1403Z" fill="black"/>
<path fill-rule="evenodd" clip-rule="evenodd" d="M7.91919 8.79409C7.91919 8.20357 8.37796 7.72485 8.94387 7.72485H8.95308C9.519 7.72485 9.97776 8.20357 9.97776 8.79409C9.97776 9.38461 9.519 9.86332 8.95308 9.86332H8.94387C8.37796 9.86332 7.91919 9.38461 7.91919 8.79409Z" fill="black"/>
</svg>
