<svg width="26" height="26" viewBox="0 0 26 26" fill="none" xmlns="http://www.w3.org/2000/svg">
<path d="M14.565 10.7043V13.7304H17.2781C17.4868 13.7304 17.5911 13.9391 17.5911 14.1478L17.1737 16.1304C17.1737 16.2348 16.965 16.3391 16.8607 16.3391H14.565V23.9565H11.4346V16.4435H9.6607C9.452 16.4435 9.34766 16.3391 9.34766 16.1304V14.1478C9.34766 13.9391 9.452 13.8348 9.6607 13.8348H11.4346V10.3913C11.4346 8.61739 12.7911 7.26086 14.565 7.26086H17.3824C17.5911 7.26086 17.6955 7.36521 17.6955 7.57391V10.0783C17.6955 10.287 17.5911 10.3913 17.3824 10.3913H14.8781C14.6694 10.3913 14.565 10.4956 14.565 10.7043Z" stroke="black" stroke-width="1.5" stroke-miterlimit="10" stroke-linecap="round"/>
<path d="M13 25C19.6274 25 25 19.6274 25 13C25 6.37258 19.6274 1 13 1C6.37258 1 1 6.37258 1 13C1 19.6274 6.37258 25 13 25Z" stroke="black" stroke-width="1.5" stroke-miterlimit="10" stroke-linejoin="round"/>
</svg>
