<svg width="22" height="21" viewBox="0 0 22 21" fill="none" xmlns="http://www.w3.org/2000/svg">
<g clip-path="url(#clip0_16_4321)">
<path d="M21.349 10.5946C21.349 9.74241 21.2763 9.12056 21.119 8.47568H10.8926V12.3219H16.8953C16.7743 13.2778 16.1208 14.7173 14.6685 15.6845L14.6481 15.8133L17.8815 18.1968L18.1056 18.2181C20.1629 16.4101 21.349 13.7499 21.349 10.5946Z" fill="#4285F4"/>
<path d="M10.8924 20.7285C13.8332 20.7285 16.3021 19.8072 18.1054 18.2181L14.6683 15.6845C13.7485 16.2949 12.5141 16.721 10.8924 16.721C8.01207 16.721 5.56742 14.913 4.69597 12.4141L4.56823 12.4244L1.20608 14.9003L1.16211 15.0166C2.95323 18.4023 6.63235 20.7285 10.8924 20.7285Z" fill="#34A853"/>
<path d="M4.69566 12.4141C4.46572 11.7692 4.33264 11.0782 4.33264 10.3643C4.33264 9.65024 4.46572 8.95932 4.68356 8.31444L4.67747 8.1771L1.27318 5.66141L1.1618 5.71182C0.423586 7.11677 0 8.69448 0 10.3643C0 12.0341 0.423586 13.6117 1.1618 15.0166L4.69566 12.4141Z" fill="#FBBC05"/>
<path d="M10.8924 4.00749C12.9377 4.00749 14.3173 4.84815 15.104 5.55066L18.178 2.69471C16.2901 1.02492 13.8332 0 10.8924 0C6.63235 0 2.95323 2.32619 1.16211 5.71182L4.68387 8.31444C5.56742 5.81551 8.01207 4.00749 10.8924 4.00749Z" fill="#EB4335"/>
</g>
<defs>
<clipPath id="clip0_16_4321">
<rect width="21.3587" height="20.8" fill="white"/>
</clipPath>
</defs>
</svg>
