
<svg width="23" height="22" viewBox="0 0 23 22" fill="none" xmlns="http://www.w3.org/2000/svg">
<path d="M10.0652 2.16153C10.8976 1.47238 12.1024 1.47238 12.9348 2.16153L13.7028 2.7973C14.2825 3.27725 14.9933 3.57166 15.7426 3.64222L16.7352 3.73568C17.8111 3.83699 18.663 4.68892 18.7643 5.76484L18.8578 6.75741C18.9283 7.50673 19.2227 8.21748 19.7027 8.79722L20.3385 9.56517C21.0276 10.3976 21.0276 11.6024 20.3385 12.4348L19.7027 13.2028C19.2227 13.7825 18.9283 14.4933 18.8578 15.2426L18.7643 16.2352C18.663 17.3111 17.8111 18.163 16.7352 18.2643L15.7426 18.3578C14.9933 18.4283 14.2825 18.7227 13.7028 19.2027L12.9348 19.8385C12.1024 20.5276 10.8976 20.5276 10.0652 19.8385L9.29723 19.2027C8.71748 18.7227 8.00673 18.4283 7.25741 18.3578L6.26483 18.2643C5.18892 18.163 4.33699 17.3111 4.23568 16.2352L4.14222 15.2426C4.07166 14.4933 3.77725 13.7825 3.2973 13.2028L2.66153 12.4348C1.97238 11.6024 1.97238 10.3976 2.66153 9.56517L2.08382 9.0869L2.66153 9.56517L3.2973 8.79722C3.77725 8.21748 4.07166 7.50673 4.14222 6.75741L4.23568 5.76483C4.33699 4.68892 5.18892 3.83699 6.26483 3.73568L7.25741 3.64222C8.00673 3.57166 8.71748 3.27725 9.29722 2.7973L8.81895 2.21958L9.29723 2.7973L10.0652 2.16153Z" stroke="black" stroke-width="1.5"/>
<path d="M11.5 6V13" stroke="black" stroke-width="1.5" stroke-linecap="round"/>
<path d="M11.5 15V16" stroke="black" stroke-width="1.5" stroke-linecap="round"/>
</svg>
