<svg width="26" height="26" viewBox="0 0 26 26" fill="none" xmlns="http://www.w3.org/2000/svg">
<path d="M13 25C19.6274 25 25 19.6274 25 13C25 6.37258 19.6274 1 13 1C6.37258 1 1 6.37258 1 13C1 19.6274 6.37258 25 13 25Z" stroke="black" stroke-width="1.5" stroke-miterlimit="10" stroke-linejoin="round"/>
<path d="M13.5216 17.6956C15.8268 17.6956 17.6955 15.8269 17.6955 13.5217C17.6955 11.2165 15.8268 9.34778 13.5216 9.34778C11.2164 9.34778 9.34766 11.2165 9.34766 13.5217C9.34766 15.8269 11.2164 17.6956 13.5216 17.6956Z" stroke="black" stroke-width="1.5" stroke-miterlimit="10" stroke-linejoin="round"/>
<path d="M19.261 7.26089C19.5491 7.26089 19.7827 7.02729 19.7827 6.73915C19.7827 6.451 19.5491 6.21741 19.261 6.21741C18.9728 6.21741 18.7393 6.451 18.7393 6.73915C18.7393 7.02729 18.9728 7.26089 19.261 7.26089Z" fill="black" stroke="black" stroke-width="1.5" stroke-miterlimit="10" stroke-linejoin="round"/>
</svg>
