<svg width="155" height="47" viewBox="0 0 155 47" fill="none" xmlns="http://www.w3.org/2000/svg">
<path d="M89.5862 17.7566C88.1882 19.1907 86.4871 19.9075 84.4826 19.9075C82.4781 19.9075 80.7769 19.1907 79.3791 17.7566C77.9943 16.3091 77.3021 14.5406 77.3021 12.4512C77.3021 10.3618 77.9943 8.60018 79.3791 7.16609C80.7769 5.71861 82.4781 4.99487 84.4826 4.99487C86.4871 4.99487 88.1882 5.71861 89.5862 7.16609C90.984 8.60018 91.6831 10.3618 91.6831 12.4512C91.6831 14.5406 90.984 16.3091 89.5862 17.7566ZM81.2977 15.8311C82.1551 16.7051 83.2166 17.1421 84.4826 17.1421C85.7486 17.1421 86.8102 16.7051 87.6674 15.8311C88.5245 14.9435 88.9532 13.8168 88.9532 12.4512C88.9532 11.0855 88.5245 9.95892 87.6674 9.0713C86.8102 8.18346 85.7486 7.73977 84.4826 7.73977C83.2166 7.73977 82.1551 8.18346 81.2977 9.0713C80.4406 9.95892 80.0121 11.0855 80.0121 12.4512C80.0121 13.8168 80.4406 14.9435 81.2977 15.8311ZM107.191 11.9185V13.0247C107.191 15.0732 106.558 16.7325 105.292 18.0025C104.026 19.2725 102.391 19.9075 100.387 19.9075C98.2502 19.9075 96.4765 19.1907 95.0653 17.7566C93.6676 16.3091 92.9687 14.5475 92.9687 12.4717C92.9687 10.3823 93.6609 8.61378 95.0457 7.16609C96.4435 5.71861 98.1711 4.99487 100.228 4.99487C101.521 4.99487 102.701 5.30212 103.769 5.9166C104.837 6.51749 105.668 7.32328 106.262 8.33374L103.927 9.72681C103.598 9.13953 103.097 8.66149 102.424 8.29271C101.765 7.92416 101.026 7.73977 100.209 7.73977C98.8898 7.73977 97.8019 8.19038 96.9445 9.09181C96.1005 9.97943 95.6787 11.1061 95.6787 12.4717C95.6787 13.8238 96.1072 14.9435 96.9643 15.8311C97.8348 16.7051 98.9822 17.1421 100.406 17.1421C101.461 17.1421 102.332 16.9031 103.017 16.4253C103.716 15.9337 104.191 15.2643 104.442 14.4177H100.248V11.9185H107.191ZM120.784 17.7566C119.386 19.1907 117.685 19.9075 115.681 19.9075C113.676 19.9075 111.975 19.1907 110.577 17.7566C109.192 16.3091 108.5 14.5406 108.5 12.4512C108.5 10.3618 109.192 8.60018 110.577 7.16609C111.975 5.71861 113.676 4.99487 115.681 4.99487C117.685 4.99487 119.386 5.71861 120.784 7.16609C122.182 8.60018 122.881 10.3618 122.881 12.4512C122.881 14.5406 122.182 16.3091 120.784 17.7566ZM112.496 15.8311C113.353 16.7051 114.415 17.1421 115.681 17.1421C116.947 17.1421 118.008 16.7051 118.865 15.8311C119.723 14.9435 120.151 13.8168 120.151 12.4512C120.151 11.0855 119.723 9.95892 118.865 9.0713C118.008 8.18346 116.947 7.73977 115.681 7.73977C114.415 7.73977 113.353 8.18346 112.496 9.0713C111.639 9.95892 111.21 11.0855 111.21 12.4512C111.21 13.8168 111.639 14.9435 112.496 15.8311ZM138.389 11.9185V13.0247C138.389 15.0732 137.756 16.7325 136.49 18.0025C135.224 19.2725 133.589 19.9075 131.584 19.9075C129.448 19.9075 127.674 19.1907 126.263 17.7566C124.866 16.3091 124.166 14.5475 124.166 12.4717C124.166 10.3823 124.859 8.61378 126.244 7.16609C127.642 5.71861 129.369 4.99487 131.426 4.99487C132.719 4.99487 133.899 5.30212 134.967 5.9166C136.035 6.51749 136.866 7.32328 137.46 8.33374L135.125 9.72681C134.796 9.13953 134.295 8.66149 133.622 8.29271C132.963 7.92416 132.224 7.73977 131.406 7.73977C130.088 7.73977 129 8.19038 128.143 9.09181C127.299 9.97943 126.877 11.1061 126.877 12.4717C126.877 13.8238 127.305 14.9435 128.162 15.8311C129.033 16.7051 130.18 17.1421 131.604 17.1421C132.659 17.1421 133.53 16.9031 134.215 16.4253C134.914 15.9337 135.389 15.2643 135.64 14.4177H131.446V11.9185H138.389ZM151.982 17.7566C150.584 19.1907 148.883 19.9075 146.879 19.9075C144.874 19.9075 143.173 19.1907 141.775 17.7566C140.39 16.3091 139.698 14.5406 139.698 12.4512C139.698 10.3618 140.39 8.60018 141.775 7.16609C143.173 5.71861 144.874 4.99487 146.879 4.99487C148.883 4.99487 150.584 5.71861 151.982 7.16609C153.38 8.60018 154.079 10.3618 154.079 12.4512C154.079 14.5406 153.38 16.3091 151.982 17.7566ZM143.694 15.8311C144.551 16.7051 145.613 17.1421 146.879 17.1421C148.145 17.1421 149.206 16.7051 150.063 15.8311C150.921 14.9435 151.349 13.8168 151.349 12.4512C151.349 11.0855 150.921 9.95892 150.063 9.0713C149.206 8.18346 148.145 7.73977 146.879 7.73977C145.613 7.73977 144.551 8.18346 143.694 9.0713C142.837 9.95892 142.408 11.0855 142.408 12.4512C142.408 13.8168 142.837 14.9435 143.694 15.8311Z" fill="#FF7A00"/>
<path d="M84.6756 42.8655C83.2193 42.8655 81.8202 42.6368 80.4784 42.1792C79.153 41.7217 78.0239 41.1202 77.0912 40.3746L79.1284 36.2823C80.8466 37.6379 82.892 38.3157 85.2647 38.3157C86.3937 38.3157 86.9583 38.0023 86.9583 37.3753C86.9583 37.138 86.8519 36.9432 86.6392 36.7907C86.4265 36.6382 86.181 36.5365 85.9029 36.4857C85.641 36.4179 85.2565 36.3416 84.7492 36.2569C84.7001 36.2569 84.6592 36.2569 84.6265 36.2569C84.6101 36.24 84.5774 36.2315 84.5283 36.2315C84.4792 36.2145 84.4383 36.2061 84.4056 36.2061C83.8329 36.1044 83.3502 36.0112 82.9574 35.9265C82.5811 35.8417 82.1065 35.7147 81.5338 35.5452C80.9611 35.3588 80.4866 35.147 80.1102 34.9098C79.7339 34.6556 79.3575 34.3506 78.9812 33.9947C78.6212 33.6219 78.343 33.1729 78.1466 32.6476C77.9666 32.1053 77.8766 31.5038 77.8766 30.8429C77.8766 29.0298 78.5393 27.6572 79.8648 26.7252C81.1902 25.7763 82.9738 25.3018 85.2156 25.3018C87.8174 25.3018 90.0673 25.9034 91.9655 27.1065L89.9282 31.0971C89.3228 30.7243 88.5537 30.4023 87.621 30.1312C86.6883 29.8432 85.7638 29.6991 84.8474 29.6991C83.6856 29.6991 83.1047 29.9787 83.1047 30.5379C83.1047 30.9615 83.4729 31.2665 84.2092 31.4529C84.3401 31.4868 84.6756 31.5546 85.2156 31.6563C87.1465 32.0121 88.4964 32.3595 89.2655 32.6984C91.2291 33.5965 92.2191 35.0453 92.2355 37.0448C92.2355 38.8749 91.5727 40.3068 90.2473 41.3404C88.9382 42.3572 87.081 42.8655 84.6756 42.8655ZM97.3225 42.5859V30.0804H92.659V25.5814H107.091V30.0804H102.428V42.5859H97.3225ZM115.892 42.8909C113.389 42.8909 111.319 42.0606 109.682 40.4C108.046 38.7394 107.228 36.6382 107.228 34.0964C107.228 31.5546 108.046 29.4534 109.682 27.7928C111.319 26.1152 113.389 25.2764 115.892 25.2764C118.412 25.2764 120.49 26.1152 122.127 27.7928C123.763 29.4534 124.581 31.5546 124.581 34.0964C124.581 36.6212 123.763 38.7224 122.127 40.4C120.49 42.0606 118.412 42.8909 115.892 42.8909ZM113.217 36.9178C113.937 37.6803 114.829 38.0616 115.892 38.0616C116.956 38.0616 117.848 37.6803 118.568 36.9178C119.288 36.1552 119.648 35.2148 119.648 34.0964C119.648 32.978 119.288 32.0376 118.568 31.275C117.848 30.5125 116.956 30.1312 115.892 30.1312C114.829 30.1312 113.937 30.5125 113.217 31.275C112.513 32.0376 112.161 32.978 112.161 34.0964C112.161 35.2148 112.513 36.1552 113.217 36.9178ZM141.019 42.5859H134.981L132.698 38.0107H131.225V42.5859H126.145V25.5814H134.784C136.47 25.5814 137.861 26.1576 138.957 27.3098C140.07 28.4621 140.626 29.9109 140.626 31.6563C140.626 32.8424 140.381 33.9015 139.89 34.8335C139.415 35.7655 138.753 36.4857 137.902 36.994L141.019 42.5859ZM133.729 30.0804H131.225V33.7914H133.704C134.228 33.7914 134.654 33.6134 134.981 33.2576C135.324 32.9017 135.496 32.4612 135.496 31.9359C135.496 31.3936 135.324 30.9531 134.981 30.6142C134.654 30.2583 134.236 30.0804 133.729 30.0804ZM147.367 36.2061V38.0616H155V42.5859H142.408V25.5814H154.73V30.1058H147.367V31.9613H154.534V36.2061H147.367Z" fill="#009B95"/>
<path d="M37.7832 23.8814L32.5303 8.52216C32.4705 8.33777 32.3714 8.20489 32.2326 8.12306C32.1137 8.04146 31.9753 8.00065 31.8168 8.00088C31.4607 8.00177 31.2234 8.17635 31.1054 8.52484L25.9096 23.905L22.4365 23.9119L28.1938 7.08606C28.4692 6.24527 28.9233 5.61919 29.5557 5.20827C30.208 4.79713 30.9597 4.59066 31.8106 4.58888C32.6416 4.58732 33.3842 4.79066 34.0379 5.19935C34.6918 5.60782 35.1579 6.23189 35.4366 7.07157L41.2561 23.8745L37.7832 23.8814Z" fill="#009B95"/>
<path d="M15.0734 8.47545C16.438 8.47545 17.7716 8.89439 18.9061 9.67945C20.0405 10.4645 20.9248 11.5802 21.4469 12.8857C21.9691 14.1911 22.1056 15.6276 21.8392 17.0134C21.5729 18.3991 20.9158 19.672 19.9508 20.6711C18.9858 21.6699 17.7566 22.3502 16.4182 22.6256C15.0801 22.9011 13.6929 22.7593 12.4325 22.2184C11.172 21.6775 10.0947 20.7616 9.33698 19.5866C8.5791 18.4116 8.17497 17.0303 8.17519 15.6174C8.17799 13.7222 8.9068 11.9057 10.2017 10.5666C11.4967 9.2275 13.2519 8.47545 15.082 8.47545H15.0734ZM15.082 0.000854584C12.0989 0.000854584 9.18283 0.916786 6.7027 2.63315C4.22236 4.3493 2.28934 6.78874 1.14778 9.64266C0.00643482 12.4966 -0.292195 15.637 0.289996 18.6666C0.871971 21.6962 2.3085 24.4793 4.41808 26.6634C6.52744 28.8476 9.21491 30.3349 12.1407 30.9374C15.0663 31.5398 18.0989 31.2304 20.8546 30.048C23.6106 28.8656 25.966 26.8634 27.623 24.2949C29.28 21.7261 30.1643 18.7063 30.1639 15.6174C30.1639 13.5664 29.7737 11.5356 29.0158 9.64065C28.258 7.74592 27.147 6.02442 25.7464 4.57427C24.3458 3.12412 22.6832 1.97385 20.8533 1.18903C19.0237 0.404419 17.0624 0.000631622 15.082 0.000854584Z" fill="#FF7A00"/>
<path d="M48.1092 8.47459C49.4736 8.47459 50.8074 8.89354 51.9419 9.67859C53.0763 10.4636 53.9606 11.5796 54.4825 12.8848C55.0046 14.1902 55.1411 15.6268 54.8748 17.0125C54.6084 18.3982 53.9513 19.6711 52.9865 20.6702C52.0215 21.6691 50.7921 22.3494 49.454 22.6247C48.1156 22.9003 46.7286 22.7585 45.4682 22.2176C44.2076 21.6767 43.1304 20.7607 42.3725 19.5857C41.6149 18.4107 41.2105 17.0294 41.2109 15.6165C41.2135 13.7229 41.9413 11.9078 43.2344 10.5689C44.5275 9.22999 46.2806 8.47705 48.1092 8.47459ZM48.1092 1.62748e-07C45.1261 -0.000445763 42.21 0.915486 39.7294 2.63141C37.2491 4.34733 35.3156 6.78677 34.1738 9.64069C33.0323 12.4946 32.7334 15.635 33.3152 18.6647C33.8972 21.6945 35.3337 24.4775 37.4429 26.6619C39.5522 28.8463 42.2399 30.3339 45.1655 30.9365C48.0913 31.539 51.1239 31.2295 53.8798 30.0474C56.6358 28.865 58.9912 26.8628 60.6484 24.2943C62.3054 21.7255 63.1897 18.7057 63.1895 15.6165C63.1895 11.4748 61.6007 7.5027 58.7725 4.57386C55.9444 1.64524 52.1087 1.62748e-07 48.1092 1.62748e-07Z" fill="#FF7A00"/>
<path fill-rule="evenodd" clip-rule="evenodd" d="M40.0512 44.5957C37.5323 43.3603 35.3097 41.561 33.5439 39.3278L39.3426 34.4108C40.4056 35.7548 41.7433 36.8379 43.2595 37.5815C44.7754 38.3251 46.4322 38.7108 48.1097 38.7108C49.7874 38.7108 51.4442 38.3251 52.9601 37.5815C54.4763 36.8379 55.814 35.7548 56.877 34.4108L62.6756 39.3278C60.9099 41.561 58.6873 43.3603 56.1684 44.5957C53.6493 45.8311 50.8971 46.4722 48.1097 46.4722C45.3225 46.4722 42.5703 45.8311 40.0512 44.5957Z" fill="#FF7A00"/>
</svg>
