<svg width="25" height="24" viewBox="0 0 25 24" fill="none" xmlns="http://www.w3.org/2000/svg">
<path d="M12.5 22C16.63 22 20 18.63 20 14.5V9.5C20 5.37 16.63 2 12.5 2C8.37 2 5 5.37 5 9.5V14.5C5 18.63 8.37 22 12.5 22Z" stroke="black" stroke-width="1.5" stroke-linecap="round" stroke-linejoin="round"/>
<path d="M12.5 11C11.67 11 11 10.33 11 9.5V7.5C11 6.67 11.67 6 12.5 6C13.32 6 14 6.67 14 7.5V9.5C14 10.33 13.32 11 12.5 11Z" stroke="black" stroke-width="1.5" stroke-linecap="round" stroke-linejoin="round"/>
<path d="M12.5 6V2" stroke="black" stroke-width="1.5" stroke-linecap="round" stroke-linejoin="round"/>
</svg>
