<svg width="26" height="26" viewBox="0 0 26 26" fill="none" xmlns="http://www.w3.org/2000/svg">
<path d="M13 25C19.6274 25 25 19.6274 25 13C25 6.37258 19.6274 1 13 1C6.37258 1 1 6.37258 1 13C1 19.6274 6.37258 25 13 25Z" stroke="black" stroke-width="1.5" stroke-miterlimit="10" stroke-linejoin="round"/>
<path d="M10.5495 15.8055C10.7778 15.9522 10.9326 16.1596 10.9996 16.2896C12.3509 17.0543 15.3237 18.7802 16.4048 19.5668C17.4858 20.3533 17.9813 18.8021 18.0939 17.9282C18.6569 14.651 19.783 7.96556 19.783 7.44121C19.783 6.91686 17.9813 7.65969 17.0804 8.09665L6.27001 12.0293L5.22356 12.5043C4.5699 12.7338 3.52625 13.2878 4.5809 13.6678C6.15742 14.3233 9.44558 15.6341 9.9861 15.6341C10.2049 15.6341 10.3942 15.7058 10.5495 15.8055ZM10.5495 15.8055L15.2791 12.5043" stroke="black" stroke-width="1.5"/>
</svg>
