<svg width="25" height="16" viewBox="0 0 25 16" fill="none" xmlns="http://www.w3.org/2000/svg">
<mask id="path-1-inside-1_41_126" fill="white">
<path d="M4.5 2H20.5V12H4.5M20.5 14C21.0304 14 21.5391 13.7893 21.9142 13.4142C22.2893 13.0391 22.5 12.5304 22.5 12V2C22.5 0.89 21.6 0 20.5 0H4.5C3.39 0 2.5 0.89 2.5 2V12C2.5 12.5304 2.71071 13.0391 3.08579 13.4142C3.46086 13.7893 3.96957 14 4.5 14H0.5V16H24.5V14H20.5Z"/>
</mask>
<path d="M4.5 2H20.5V12H4.5M20.5 14C21.0304 14 21.5391 13.7893 21.9142 13.4142C22.2893 13.0391 22.5 12.5304 22.5 12V2C22.5 0.89 21.6 0 20.5 0H4.5C3.39 0 2.5 0.89 2.5 2V12C2.5 12.5304 2.71071 13.0391 3.08579 13.4142C3.46086 13.7893 3.96957 14 4.5 14H0.5V16H24.5V14H20.5Z" fill="black"/>
<path d="M20.5 2H21.5V1H20.5V2ZM20.5 12V13H21.5V12H20.5ZM2.5 12H1.5H2.5ZM0.5 14V13H-0.5V14H0.5ZM0.5 16H-0.5V17H0.5V16ZM24.5 16V17H25.5V16H24.5ZM24.5 14H25.5V13H24.5V14ZM4.5 3H20.5V1H4.5V3ZM19.5 2V12H21.5V2H19.5ZM20.5 11H4.5V13H20.5V11ZM20.5 15C21.2957 15 22.0587 14.6839 22.6213 14.1213L21.2071 12.7071C21.0196 12.8946 20.7652 13 20.5 13V15ZM22.6213 14.1213C23.1839 13.5587 23.5 12.7957 23.5 12H21.5C21.5 12.2652 21.3946 12.5196 21.2071 12.7071L22.6213 14.1213ZM23.5 12V2H21.5V12H23.5ZM23.5 2C23.5 0.334461 22.149 -1 20.5 -1V1C21.051 1 21.5 1.44554 21.5 2H23.5ZM20.5 -1H4.5V1H20.5V-1ZM4.5 -1C2.83772 -1 1.5 0.337715 1.5 2H3.5C3.5 1.44228 3.94228 1 4.5 1V-1ZM1.5 2V12H3.5V2H1.5ZM1.5 12C1.5 12.7956 1.81607 13.5587 2.37868 14.1213L3.79289 12.7071C3.60536 12.5196 3.5 12.2652 3.5 12H1.5ZM2.37868 14.1213C2.94129 14.6839 3.70435 15 4.5 15V13C4.23478 13 3.98043 12.8946 3.79289 12.7071L2.37868 14.1213ZM4.5 13H0.5V15H4.5V13ZM-0.5 14V16H1.5V14H-0.5ZM0.5 17H24.5V15H0.5V17ZM25.5 16V14H23.5V16H25.5ZM24.5 13H20.5V15H24.5V13Z" fill="black" mask="url(#path-1-inside-1_41_126)"/>
</svg>
