<svg width="25" height="25" viewBox="0 0 25 25" fill="none" xmlns="http://www.w3.org/2000/svg">
<path d="M6.635 22.39C8.36 23.425 10.43 24 12.5 24C18.825 24 24 18.825 24 12.5C24 6.175 18.825 1 12.5 1C6.175 1 1 6.175 1 12.5C1 14.57 1.575 16.525 2.495 18.25L1.44044 22.306C1.24572 23.0549 1.93892 23.7317 2.68299 23.5191L6.635 22.39Z" stroke="black" stroke-width="1.5" stroke-miterlimit="10" stroke-linecap="round" stroke-linejoin="round"/>
<path d="M18 15.9815C18 16.1795 17.9559 16.383 17.8623 16.581C17.7687 16.779 17.6475 16.966 17.4877 17.142C17.2178 17.439 16.9204 17.6535 16.5844 17.791C16.2539 17.9285 15.8958 18 15.5103 18C14.9484 18 14.348 17.868 13.7146 17.5985C13.0811 17.329 12.4477 16.966 11.8197 16.5095C11.1863 16.0475 10.5859 15.536 10.013 14.9695C9.44567 14.3975 8.9334 13.798 8.47621 13.171C8.02454 12.544 7.66099 11.917 7.39659 11.2955C7.1322 10.6685 7 10.069 7 9.497C7 9.123 7.0661 8.7655 7.1983 8.4355C7.3305 8.1 7.53981 7.792 7.83175 7.517C8.18428 7.1705 8.56985 7 8.97747 7C9.1317 7 9.28593 7.033 9.42364 7.099C9.56685 7.165 9.69354 7.264 9.79269 7.407L11.0706 9.2055C11.1698 9.343 11.2414 9.4695 11.2909 9.5905C11.3405 9.706 11.3681 9.8215 11.3681 9.926C11.3681 10.058 11.3295 10.19 11.2524 10.3165C11.1808 10.443 11.0761 10.575 10.9439 10.707L10.5253 11.1415C10.4647 11.202 10.4372 11.2735 10.4372 11.3615C10.4372 11.4055 10.4427 11.444 10.4537 11.488C10.4702 11.532 10.4867 11.565 10.4977 11.598C10.5969 11.7795 10.7677 12.016 11.01 12.302C11.2579 12.588 11.5223 12.8795 11.8087 13.171C12.1062 13.4625 12.3926 13.732 12.6845 13.9795C12.971 14.2215 13.2078 14.3865 13.3951 14.4855C13.4226 14.4965 13.4557 14.513 13.4942 14.5295C13.5383 14.546 13.5824 14.5515 13.6319 14.5515C13.7256 14.5515 13.7972 14.5185 13.8578 14.458L14.2764 14.0455C14.4141 13.908 14.5463 13.8035 14.673 13.7375C14.7997 13.6605 14.9264 13.622 15.0641 13.622C15.1688 13.622 15.2789 13.644 15.4001 13.6935C15.5213 13.743 15.648 13.8145 15.7857 13.908L17.6089 15.2005C17.7521 15.2995 17.8513 15.415 17.9119 15.5525C17.967 15.69 18 15.8275 18 15.9815Z" stroke="black" stroke-width="1.5" stroke-miterlimit="10"/>
</svg>
